<svg width="1920" height="661" viewBox="0 0 1920 661" fill="none" xmlns="http://www.w3.org/2000/svg">
<path d="M0 0H1920V430.803H0V0ZM0 594.744C0 594.744 387.437 654.013 640 660.321C890.47 666.577 1029.36 627.533 1280 627.533C1530.64 627.533 1920 660.321 1920 660.321V430.803H0V594.744ZM0 0H1920V430.803H0V0ZM0 594.744C0 594.744 387.437 654.013 640 660.321C890.47 666.577 1029.36 627.533 1280 627.533C1530.64 627.533 1920 660.321 1920 660.321V430.803H0V594.744Z" fill="#8BB5F7"/>
<path fill-rule="evenodd" clip-rule="evenodd" d="M0 0H1920V430.803H0V0ZM0 594.744C0 594.744 387.437 654.013 640 660.321C890.47 666.577 1029.36 627.533 1280 627.533C1530.64 627.533 1920 660.321 1920 660.321V430.803H0V594.744ZM0 0H1920V430.803H0V0ZM0 594.744C0 594.744 387.437 654.013 640 660.321C890.47 666.577 1029.36 627.533 1280 627.533C1530.64 627.533 1920 660.321 1920 660.321V430.803H0V594.744Z" fill="#8BB5F7"/>
</svg>
